<svg version="1.1" id="Layer_1" xmlns="http://www.w3.org/2000/svg" xmlns:xlink="http://www.w3.org/1999/xlink" x="0px" y="0px"
	 width="100%" viewBox="0 0 500 500" enable-background="new 0 0 500 500" xml:space="preserve">
<path fill="#000000" opacity="1.000000" stroke="none" 
	d="
M456.000000,501.000000 
	C304.000031,501.000000 152.500076,501.000000 1.000081,501.000000 
	C1.000054,334.333405 1.000054,167.666824 1.000027,1.000171 
	C167.666550,1.000114 334.333099,1.000114 500.999756,1.000057 
	C500.999817,167.666519 500.999817,334.333038 500.999908,500.999756 
	C486.166656,501.000000 471.333344,501.000000 456.000000,501.000000 
M340.999847,252.999390 
	C340.999847,252.999390 341.004059,253.006622 340.739380,253.208450 
	C340.557861,253.538055 340.640167,253.810425 341.041473,254.522034 
	C341.041473,254.522034 341.054840,255.021378 340.579010,255.552429 
	C341.334229,258.733459 342.089447,261.914520 343.152100,265.607880 
	C343.505829,266.087189 343.859558,266.566498 344.370392,267.430511 
	C344.532928,267.665619 344.744751,267.841309 345.284088,268.360809 
	C345.495728,268.615082 345.746368,268.822113 346.474030,269.466461 
	C347.986969,270.274536 349.499908,271.082642 351.507080,272.136688 
	C357.276550,274.437134 363.083069,274.805237 368.754913,272.002838 
	C369.945251,271.414703 371.235748,270.019165 371.497620,268.786865 
	C371.946838,266.673187 371.621735,264.394989 371.621735,261.549164 
	C368.723114,262.575928 366.550110,263.206085 364.493744,264.103546 
	C360.387909,265.895508 356.668640,264.980347 353.464569,262.306641 
	C349.745026,259.202789 348.825867,254.240128 350.884247,250.707748 
	C353.470032,246.270340 358.421173,244.137772 363.161804,245.544769 
	C365.911804,246.360977 368.604980,247.368683 371.462341,248.337173 
	C372.507782,238.844589 372.115295,238.178894 363.904633,236.655502 
	C361.318024,236.175583 358.628540,236.071625 355.988464,236.092407 
	C348.586182,236.150696 343.590210,240.428177 341.574005,248.325195 
	C341.454773,248.859177 341.335541,249.393173 341.194489,250.641205 
	C341.214325,251.116745 341.234192,251.592300 341.118469,252.531219 
	C341.118469,252.531219 341.008118,253.001236 340.999847,252.999390 
M180.237137,256.776947 
	C180.330185,256.483246 180.222382,256.290833 180.316071,255.585526 
	C182.223358,251.362961 184.130661,247.140396 186.777145,243.385040 
	C186.828217,251.857162 186.826660,260.330261 186.984161,268.800385 
	C187.009247,270.150574 187.748230,271.487488 188.790283,272.876953 
	C189.212509,272.852966 189.634735,272.829010 190.846024,272.878967 
	C192.848953,272.538605 194.851868,272.198242 197.286148,272.329193 
	C197.857635,270.020355 198.926804,267.707397 198.907913,265.403412 
	C198.849823,258.316559 198.170090,251.234344 198.127472,244.147949 
	C198.093170,238.440063 198.777405,232.728714 198.777039,227.018936 
	C198.776978,226.066330 196.908707,225.113861 195.160980,224.465851 
	C194.358078,224.652084 193.506989,225.112411 192.759933,224.981049 
	C187.008408,223.969894 184.228806,226.772552 182.259583,231.924835 
	C179.991043,237.860275 176.854218,243.463867 173.540253,250.365860 
	C168.909637,241.486115 164.884323,233.767090 160.689026,225.505661 
	C159.797546,225.349640 158.906067,225.193619 157.130402,225.059860 
	C154.778290,225.118576 152.426193,225.177307 149.319550,225.419571 
	C148.910446,229.972244 148.501343,234.524902 148.012283,239.997391 
	C148.067139,249.275528 148.122009,258.553680 148.100281,268.674347 
	C148.707779,273.474792 151.077728,274.278595 158.328598,272.510620 
	C158.553146,264.830841 158.726959,257.148926 159.052612,249.473450 
	C159.106323,248.207382 159.825531,246.969528 160.489182,246.073990 
	C160.995987,246.376968 161.502792,246.679947 162.063782,247.494904 
	C162.067993,247.666473 162.072205,247.838043 162.016129,248.654190 
	C162.679199,249.432663 163.342270,250.211151 164.132034,251.472504 
	C164.132034,251.472504 164.264862,251.953705 164.253326,252.572769 
	C164.855530,253.340866 165.457733,254.108963 166.086761,255.446808 
	C166.080887,255.636856 166.074997,255.826889 166.014816,256.728516 
	C166.987747,258.612030 167.805603,260.597992 168.967300,262.356842 
	C171.097183,265.581512 174.783920,265.420898 177.129486,262.113129 
	C177.129486,262.113129 177.184662,262.006592 177.874695,261.918274 
	C178.255112,260.647675 178.635544,259.377075 179.098770,258.074066 
	C179.098770,258.074066 179.110550,257.985962 179.548920,257.854218 
	C179.827789,257.674713 179.976730,257.419373 180.058289,257.049072 
	C180.058289,257.049072 180.062637,256.975464 180.237137,256.776947 
M448.982574,270.246033 
	C448.988800,264.780579 449.103394,259.312164 448.954681,253.850922 
	C448.882416,251.198074 448.317352,248.558624 447.997345,245.195343 
	C445.195221,235.969681 437.306793,234.157944 428.908325,237.358322 
	C427.578735,237.864990 425.924469,237.458313 424.437531,237.626175 
	C421.322693,237.977829 418.219330,238.430878 414.955475,239.514572 
	C414.791962,240.371948 414.475800,241.231522 414.488190,242.086349 
	C414.630646,251.923492 414.810150,261.760193 415.045380,271.595459 
	C415.055542,272.021088 415.700439,272.431488 416.923218,272.881622 
	C424.991211,273.045197 424.988556,273.045197 424.991302,265.067474 
	C424.992767,260.916809 424.898468,256.762421 425.043030,252.616531 
	C425.186859,248.493408 428.905396,244.775528 432.661957,245.077026 
	C437.134247,245.435989 438.855621,248.468262 438.964996,252.560333 
	C439.080292,256.874084 438.980438,261.193268 438.998077,265.509979 
	C439.029449,273.190063 440.219513,274.075348 448.245270,272.455322 
	C448.460510,272.038666 448.675751,271.622009 448.982574,270.246033 
M294.412842,237.068802 
	C294.412842,237.068802 293.970337,237.102661 293.248962,237.376328 
	C291.197052,237.702606 289.145142,238.028885 286.665161,238.214279 
	C286.665161,238.214279 286.221649,238.144501 285.855469,237.431427 
	C285.855469,249.245193 285.855469,261.058960 285.855469,272.898224 
	C288.633606,272.898224 291.758453,272.898224 295.778778,272.737762 
	C295.856110,261.432404 295.950012,250.127045 295.960846,238.821625 
	C295.961365,238.265640 295.235992,237.708969 294.412842,237.068802 
M216.674011,257.469147 
	C221.268646,257.633209 225.862259,257.890045 230.458145,257.940308 
	C238.030502,258.023163 238.299332,257.675781 237.796585,249.355713 
	C236.929947,236.587524 223.073853,234.011765 214.954269,237.112701 
	C206.673004,240.275375 203.651047,248.134689 204.818512,259.419739 
	C206.277054,273.518524 224.410797,276.921600 232.970169,271.626282 
	C234.396118,270.744080 234.547058,267.800934 235.287186,265.810120 
	C233.559280,265.567688 231.836487,265.277283 230.102432,265.092499 
	C226.112701,264.667328 221.948395,264.859497 218.174393,263.731903 
	C214.736053,262.704559 214.038559,259.193726 216.674011,257.469147 
M89.621895,255.058990 
	C86.976440,246.573639 78.875252,245.657333 71.883141,242.487289 
	C81.137451,240.262909 88.072327,236.101303 90.494278,226.328278 
	C91.138298,223.729507 93.254936,224.749878 94.676048,226.987320 
	C96.894814,230.480606 99.115532,234.221100 102.196297,236.846802 
	C105.129036,239.346359 109.164848,240.551666 113.614265,242.775024 
	C111.518295,243.692215 110.060577,244.516647 108.496040,244.981812 
	C102.391609,246.796814 96.332184,250.000427 95.443413,256.255768 
	C94.181099,265.140198 95.122864,274.337799 95.122864,282.929291 
	C99.812767,282.929291 103.953873,282.943634 108.094833,282.926178 
	C115.532036,282.894836 122.364769,278.625397 123.682518,271.342529 
	C125.051727,263.775177 124.373894,255.862015 125.106529,248.149017 
	C126.141823,237.249847 121.855011,227.919357 116.868530,218.871399 
	C115.016663,215.511185 112.294662,211.913513 109.035797,210.203568 
	C103.278442,207.182663 96.964439,204.698883 90.597984,203.474426 
	C78.316132,201.112259 67.034317,204.698288 58.047016,213.190979 
	C49.180740,221.569290 45.369938,232.389648 45.982239,244.778030 
	C46.351295,252.244919 46.030949,259.745117 46.049358,267.230316 
	C46.068756,275.118347 52.956947,282.693756 60.773434,282.859558 
	C70.425911,283.064392 80.088181,282.807312 90.672630,282.828735 
	C90.802147,274.432770 90.957710,266.036957 91.010727,257.640533 
	C91.014877,256.983063 90.303238,256.321045 89.621895,255.058990 
M278.875305,264.414520 
	C278.873810,252.270096 278.747833,240.123703 278.939453,227.982330 
	C279.005157,223.819153 277.193939,222.848969 273.497437,223.116074 
	C270.107605,223.361023 270.250153,225.553680 269.988007,227.985382 
	C269.605316,231.534958 271.489990,235.544510 268.226624,238.813370 
	C262.751892,235.029007 257.103760,235.053986 251.552231,237.522003 
	C244.054794,240.855118 240.814560,251.054886 242.740982,260.587128 
	C244.728729,270.422913 256.205139,276.827881 264.575897,271.188477 
	C265.797119,270.365753 267.975983,270.628845 269.639465,270.876038 
	C272.205719,271.257416 274.709503,272.059082 277.239807,272.682495 
	C277.784607,270.248230 278.329376,267.813965 278.875305,264.414520 
M307.944946,249.637268 
	C312.405060,251.374405 316.990509,252.857513 321.266785,254.967255 
	C323.110474,255.876846 325.461334,258.061401 325.493011,259.706940 
	C325.526123,261.425934 323.380554,263.903503 321.577454,264.749481 
	C319.580383,265.686462 316.759583,265.687378 314.535126,265.136505 
	C310.791534,264.209442 307.235565,262.524658 303.135468,260.983795 
	C303.415619,265.316467 301.015594,270.316315 306.610077,271.605530 
	C312.140015,272.879852 318.025452,273.454468 323.682434,273.117828 
	C330.510925,272.711456 335.362457,267.332733 335.777618,260.594574 
	C336.251801,252.898682 333.837677,248.185898 326.407257,245.621918 
	C322.501770,244.274246 318.590607,242.878693 314.859589,241.126663 
	C313.656555,240.561722 312.184296,238.683502 312.323547,237.596741 
	C312.523682,236.034836 313.785522,234.155746 315.150146,233.321869 
	C316.554657,232.463623 318.732910,232.197800 320.385223,232.550476 
	C324.635376,233.457672 328.781830,234.850677 332.980316,236.052551 
	C335.216431,229.506516 333.817200,226.075546 327.795593,225.000809 
	C323.485931,224.231644 319.037384,223.997360 314.648529,223.974976 
	C308.861450,223.945465 304.658722,227.340439 302.984772,232.810928 
	C300.818420,239.890717 302.341949,245.591431 307.944946,249.637268 
M387.669098,244.872360 
	C390.214996,244.976196 392.872131,244.685165 395.258057,245.357056 
	C396.384460,245.674271 396.990997,247.837524 397.833069,249.164368 
	C396.484436,249.789337 395.192352,250.717407 393.776367,250.981796 
	C389.718445,251.739471 385.524139,251.906677 381.561035,252.968704 
	C379.787170,253.444031 377.658630,255.216553 377.043549,256.895813 
	C375.312408,261.621948 375.514709,266.557037 378.997742,270.550781 
	C381.997528,273.990417 389.137939,274.606964 393.841217,272.796783 
	C395.616882,272.113373 397.960205,271.962769 399.774109,272.493866 
	C405.701813,274.229523 407.889099,272.883331 407.934967,266.805603 
	C407.981506,260.639740 407.542358,254.438309 408.069305,248.317322 
	C408.551605,242.714844 403.743103,238.120438 399.360046,237.099518 
	C395.699829,236.246964 391.763519,235.995987 388.006561,236.267853 
	C380.840698,236.786331 379.152893,240.045700 381.983398,247.318420 
	C383.642731,246.578552 385.290771,245.843719 387.669098,244.872360 
M287.178467,222.442474 
	C286.498108,224.262421 285.535614,226.031830 285.198639,227.913269 
	C284.578949,231.372803 286.827362,232.800064 289.810059,232.888397 
	C292.666931,232.972992 295.930542,233.353973 296.365570,228.951859 
	C296.831757,224.234512 295.107910,222.755417 287.178467,222.442474 
z"/>
<path fill="#5B5FEF" opacity="1.000000" stroke="none" 
	d="
M89.746231,282.749817 
	C80.088181,282.807312 70.425911,283.064392 60.773434,282.859558 
	C52.956947,282.693756 46.068756,275.118347 46.049358,267.230316 
	C46.030949,259.745117 46.351295,252.244919 45.982239,244.778030 
	C45.369938,232.389648 49.180740,221.569290 58.047016,213.190979 
	C67.034317,204.698288 78.316132,201.112259 90.597984,203.474426 
	C96.964439,204.698883 103.278442,207.182663 109.035797,210.203568 
	C112.294662,211.913513 115.016663,215.511185 116.868530,218.871399 
	C121.855011,227.919357 126.141823,237.249847 125.106529,248.149017 
	C124.373894,255.862015 125.051727,263.775177 123.682518,271.342529 
	C122.364769,278.625397 115.532036,282.894836 108.094833,282.926178 
	C103.953873,282.943634 99.812767,282.929291 95.122864,282.929291 
	C95.122864,274.337799 94.181099,265.140198 95.443413,256.255768 
	C96.332184,250.000427 102.391609,246.796814 108.496040,244.981812 
	C110.060577,244.516647 111.518295,243.692215 113.614265,242.775024 
	C109.164848,240.551666 105.129036,239.346359 102.196297,236.846802 
	C99.115532,234.221100 96.894814,230.480606 94.676048,226.987320 
	C93.254936,224.749878 91.138298,223.729507 90.494278,226.328278 
	C88.072327,236.101303 81.137451,240.262909 71.883141,242.487289 
	C78.875252,245.657333 86.976440,246.573639 89.775421,255.858566 
	C89.868042,265.355377 89.807137,274.052582 89.746231,282.749817 
z"/>
<path fill="#06125E" opacity="1.000000" stroke="none" 
	d="
M150.074081,225.236023 
	C152.426193,225.177307 154.778290,225.118576 157.817688,225.234619 
	C159.289658,225.622253 160.074326,225.835159 160.858994,226.048065 
	C164.884323,233.767090 168.909637,241.486115 173.540253,250.365860 
	C176.854218,243.463867 179.991043,237.860275 182.259583,231.924835 
	C184.228806,226.772552 187.008408,223.969894 192.759933,224.981049 
	C193.506989,225.112411 194.358078,224.652084 195.719147,224.682678 
	C196.517578,225.826767 196.967056,226.754074 196.966843,227.681290 
	C196.963516,242.406815 196.902573,257.132355 196.854797,271.857880 
	C194.851868,272.198242 192.848953,272.538605 190.401657,272.440491 
	C189.649643,263.315430 189.388763,254.626724 188.993134,245.944168 
	C188.918091,244.297485 188.308777,242.675125 187.658386,241.064377 
	C186.926529,241.697418 186.482254,242.307632 186.037964,242.917847 
	C184.130661,247.140396 182.223358,251.362961 180.146484,256.086884 
	C179.976898,256.588226 180.062637,256.975464 180.062637,256.975464 
	C180.062637,256.975464 180.058289,257.049072 179.867096,257.205261 
	C179.471619,257.555298 179.283173,257.763458 179.110550,257.985962 
	C179.110550,257.985962 179.098770,258.074066 178.738678,258.204712 
	C177.980606,259.559082 177.582642,260.782837 177.184662,262.006592 
	C177.184662,262.006592 177.129486,262.113129 176.650299,262.088745 
	C172.564362,262.365112 169.655441,261.599976 168.422379,257.602692 
	C168.205338,256.899078 166.881699,256.536835 166.069107,256.016937 
	C166.074997,255.826889 166.080887,255.636856 166.037537,254.856750 
	C165.413818,253.495697 164.839340,252.724701 164.264862,251.953705 
	C164.264862,251.953705 164.132034,251.472504 164.041138,250.907806 
	C163.325638,249.565277 162.701019,248.787430 162.076416,248.009598 
	C162.072205,247.838043 162.067993,247.666473 162.009796,246.870514 
	C160.700424,240.781509 160.700424,240.781509 157.981979,241.854004 
	C158.006821,241.903915 157.904175,241.947495 157.704224,242.312958 
	C157.328079,250.778397 157.274689,258.884796 156.852539,266.971924 
	C156.783646,268.291290 155.085846,269.525635 154.140930,270.799255 
	C152.789536,269.625397 150.926376,268.696716 150.216751,267.215424 
	C149.336441,265.377808 149.411179,263.082703 149.058899,260.667053 
	C149.041260,259.924896 149.038132,259.500916 149.236435,258.710876 
	C149.649948,247.308594 149.862015,236.272308 150.074081,225.236023 
z"/>
<path fill="#07125A" opacity="1.000000" stroke="none" 
	d="
M278.874756,264.897095 
	C278.329376,267.813965 277.784607,270.248230 277.239807,272.682495 
	C274.709503,272.059082 272.205719,271.257416 269.639465,270.876038 
	C267.975983,270.628845 265.797119,270.365753 264.575897,271.188477 
	C256.205139,276.827881 244.728729,270.422913 242.740982,260.587128 
	C240.814560,251.054886 244.054794,240.855118 251.552231,237.522003 
	C257.103760,235.053986 262.751892,235.029007 268.226624,238.813370 
	C271.489990,235.544510 269.605316,231.534958 269.988007,227.985382 
	C270.250153,225.553680 270.107605,223.361023 273.497437,223.116074 
	C277.193939,222.848969 279.005157,223.819153 278.939453,227.982330 
	C278.747833,240.123703 278.873810,252.270096 278.874756,264.897095 
M266.503296,246.926422 
	C262.981781,245.257401 259.528320,243.917709 255.823349,246.688400 
	C252.231781,249.374268 252.218155,252.980438 252.636932,256.865784 
	C253.096344,261.128296 255.230728,264.942963 259.415466,264.603302 
	C262.930267,264.317993 266.839783,261.953278 269.439514,259.367859 
	C271.843170,256.977448 269.813507,249.683685 266.503296,246.926422 
z"/>
<path fill="#081358" opacity="1.000000" stroke="none" 
	d="
M307.650909,249.403900 
	C302.341949,245.591431 300.818420,239.890717 302.984772,232.810928 
	C304.658722,227.340439 308.861450,223.945465 314.648529,223.974976 
	C319.037384,223.997360 323.485931,224.231644 327.795593,225.000809 
	C333.817200,226.075546 335.216431,229.506516 332.980316,236.052551 
	C328.781830,234.850677 324.635376,233.457672 320.385223,232.550476 
	C318.732910,232.197800 316.554657,232.463623 315.150146,233.321869 
	C313.785522,234.155746 312.523682,236.034836 312.323547,237.596741 
	C312.184296,238.683502 313.656555,240.561722 314.859589,241.126663 
	C318.590607,242.878693 322.501770,244.274246 326.407257,245.621918 
	C333.837677,248.185898 336.251801,252.898682 335.777618,260.594574 
	C335.362457,267.332733 330.510925,272.711456 323.682434,273.117828 
	C318.025452,273.454468 312.140015,272.879852 306.610077,271.605530 
	C301.015594,270.316315 303.415619,265.316467 303.135468,260.983795 
	C307.235565,262.524658 310.791534,264.209442 314.535126,265.136505 
	C316.759583,265.687378 319.580383,265.686462 321.577454,264.749481 
	C323.380554,263.903503 325.526123,261.425934 325.493011,259.706940 
	C325.461334,258.061401 323.110474,255.876846 321.266785,254.967255 
	C316.990509,252.857513 312.405060,251.374405 307.650909,249.403900 
z"/>
<path fill="#081358" opacity="1.000000" stroke="none" 
	d="
M387.303955,244.990631 
	C385.290771,245.843719 383.642731,246.578552 381.983398,247.318420 
	C379.152893,240.045700 380.840698,236.786331 388.006561,236.267853 
	C391.763519,235.995987 395.699829,236.246964 399.360046,237.099518 
	C403.743103,238.120438 408.551605,242.714844 408.069305,248.317322 
	C407.542358,254.438309 407.981506,260.639740 407.934967,266.805603 
	C407.889099,272.883331 405.701813,274.229523 399.774109,272.493866 
	C397.960205,271.962769 395.616882,272.113373 393.841217,272.796783 
	C389.137939,274.606964 381.997528,273.990417 378.997742,270.550781 
	C375.514709,266.557037 375.312408,261.621948 377.043549,256.895813 
	C377.658630,255.216553 379.787170,253.444031 381.561035,252.968704 
	C385.524139,251.906677 389.718445,251.739471 393.776367,250.981796 
	C395.192352,250.717407 396.484436,249.789337 397.833069,249.164368 
	C396.990997,247.837524 396.384460,245.674271 395.258057,245.357056 
	C392.872131,244.685165 390.214996,244.976196 387.303955,244.990631 
M386.551239,263.869049 
	C390.191986,267.292480 393.738159,265.107666 396.803375,263.149780 
	C397.730621,262.557526 397.176605,259.646240 397.301056,257.797150 
	C394.281769,257.904694 391.231171,257.780457 388.251617,258.182434 
	C385.021912,258.618164 385.799194,261.087341 386.551239,263.869049 
z"/>
<path fill="#081358" opacity="1.000000" stroke="none" 
	d="
M216.008453,256.974915 
	C214.038559,259.193726 214.736053,262.704559 218.174393,263.731903 
	C221.948395,264.859497 226.112701,264.667328 230.102432,265.092499 
	C231.836487,265.277283 233.559280,265.567688 235.287186,265.810120 
	C234.547058,267.800934 234.396118,270.744080 232.970169,271.626282 
	C224.410797,276.921600 206.277054,273.518524 204.818512,259.419739 
	C203.651047,248.134689 206.673004,240.275375 214.954269,237.112701 
	C223.073853,234.011765 236.929947,236.587524 237.545502,250.011230 
	C236.224472,255.036331 233.500916,256.367218 229.048294,256.111389 
	C224.732468,255.863388 220.357468,256.645325 216.008453,256.974915 
M228.075302,248.402115 
	C226.410278,245.548737 224.835556,242.087326 220.708878,243.519974 
	C217.678146,244.572174 213.791534,245.617157 214.963593,250.960220 
	C218.879501,250.960220 222.803909,251.035004 226.718918,250.876953 
	C227.285126,250.854111 227.806229,249.713760 228.075302,248.402115 
z"/>
<path fill="#07125A" opacity="1.000000" stroke="none" 
	d="
M447.899567,272.175720 
	C440.219513,274.075348 439.029449,273.190063 438.998077,265.509979 
	C438.980438,261.193268 439.080292,256.874084 438.964996,252.560333 
	C438.855621,248.468262 437.134247,245.435989 432.661957,245.077026 
	C428.905396,244.775528 425.186859,248.493408 425.043030,252.616531 
	C424.898468,256.762421 424.992767,260.916809 424.991302,265.067474 
	C424.988556,273.045197 424.991211,273.045197 416.471863,272.410980 
	C416.007782,263.457184 416.059937,254.973129 415.942810,246.491425 
	C415.907562,243.938370 415.401581,241.391815 415.111237,238.842285 
	C418.219330,238.430878 421.322693,237.977829 424.437531,237.626175 
	C425.924469,237.458313 427.578735,237.864990 428.908325,237.358322 
	C437.306793,234.157944 445.195221,235.969681 447.994324,245.830933 
	C447.942108,246.644363 447.892914,246.822235 447.660828,247.369247 
	C447.606049,255.166214 447.734161,262.594055 447.938080,270.243591 
	C448.013916,270.465302 448.011993,270.933868 447.985748,271.244507 
	C447.939514,271.762024 447.919556,271.968872 447.899567,272.175720 
z"/>
<path fill="#081358" opacity="1.000000" stroke="none" 
	d="
M341.254059,252.067841 
	C341.234192,251.592300 341.214325,251.116745 341.349487,250.056580 
	C341.652893,248.950165 341.801270,248.428360 341.949646,247.906555 
	C343.590210,240.428177 348.586182,236.150696 355.988464,236.092407 
	C358.628540,236.071625 361.318024,236.175583 363.904633,236.655502 
	C372.115295,238.178894 372.507782,238.844589 371.462341,248.337173 
	C368.604980,247.368683 365.911804,246.360977 363.161804,245.544769 
	C358.421173,244.137772 353.470032,246.270340 350.884247,250.707748 
	C348.825867,254.240128 349.745026,259.202789 353.464569,262.306641 
	C356.668640,264.980347 360.387909,265.895508 364.493744,264.103546 
	C366.550110,263.206085 368.723114,262.575928 371.621735,261.549164 
	C371.621735,264.394989 371.946838,266.673187 371.497620,268.786865 
	C371.235748,270.019165 369.945251,271.414703 368.754913,272.002838 
	C363.083069,274.805237 357.276550,274.437134 351.327942,271.731964 
	C349.444550,270.545471 347.740295,269.763702 346.036011,268.981934 
	C345.746368,268.822113 345.495728,268.615082 345.027893,267.994080 
	C344.603363,267.416412 344.417236,267.222565 344.213318,267.045776 
	C343.859558,266.566498 343.505829,266.087189 343.028381,264.932312 
	C342.288025,261.178284 341.671448,258.099823 341.054840,255.021378 
	C341.054840,255.021378 341.041473,254.522034 341.019287,254.019012 
	C340.999420,253.346207 341.001740,253.176407 341.004059,253.006622 
	C341.004059,253.006622 340.999847,252.999390 341.101990,252.907608 
	C341.361389,252.578659 341.378052,252.329330 341.254059,252.067841 
z"/>
<path fill="#06125E" opacity="1.000000" stroke="none" 
	d="
M287.093231,238.355164 
	C289.145142,238.028885 291.197052,237.702606 293.614319,237.699249 
	C293.984528,239.827957 293.936920,241.635666 294.003387,243.439178 
	C294.267883,250.615952 294.567871,257.791412 294.926422,265.368805 
	C294.693970,267.522949 294.389832,269.275665 293.727539,271.004150 
	C288.362244,271.055206 286.638214,268.742432 286.905243,263.665344 
	C287.347931,255.248611 287.068481,246.793884 287.093231,238.355164 
z"/>
<path fill="#081358" opacity="1.000000" stroke="none" 
	d="
M287.542999,222.274246 
	C295.107910,222.755417 296.831757,224.234512 296.365570,228.951859 
	C295.930542,233.353973 292.666931,232.972992 289.810059,232.888397 
	C286.827362,232.800064 284.578949,231.372803 285.198639,227.913269 
	C285.535614,226.031830 286.498108,224.262421 287.542999,222.274246 
z"/>
<path fill="#6B719F" opacity="1.000000" stroke="none" 
	d="
M197.070465,272.093536 
	C196.902573,257.132355 196.963516,242.406815 196.966843,227.681290 
	C196.967056,226.754074 196.517578,225.826767 196.090500,224.530426 
	C196.908707,225.113861 198.776978,226.066330 198.777039,227.018936 
	C198.777405,232.728714 198.093170,238.440063 198.127472,244.147949 
	C198.170090,251.234344 198.849823,258.316559 198.907913,265.403412 
	C198.926804,267.707397 197.857635,270.020355 197.070465,272.093536 
z"/>
<path fill="#060E49" opacity="1.000000" stroke="none" 
	d="
M149.073395,260.985199 
	C149.411179,263.082703 149.336441,265.377808 150.216751,267.215424 
	C150.926376,268.696716 152.789536,269.625397 154.140930,270.799255 
	C155.085846,269.525635 156.783646,268.291290 156.852539,266.971924 
	C157.274689,258.884796 157.328079,250.778397 157.741409,242.785828 
	C157.925583,252.585754 157.872635,262.278229 157.819687,271.970734 
	C151.077728,274.278595 148.707779,273.474792 148.310577,267.929321 
	C148.705032,265.117920 148.889206,263.051575 149.073395,260.985199 
z"/>
<path fill="#060E49" opacity="1.000000" stroke="none" 
	d="
M216.341232,257.222046 
	C220.357468,256.645325 224.732468,255.863388 229.048294,256.111389 
	C233.500916,256.367218 236.224472,255.036331 237.486176,250.396713 
	C238.299332,257.675781 238.030502,258.023163 230.458145,257.940308 
	C225.862259,257.890045 221.268646,257.633209 216.341232,257.222046 
z"/>
<path fill="#060E49" opacity="1.000000" stroke="none" 
	d="
M149.696808,225.327789 
	C149.862015,236.272308 149.649948,247.308594 149.227600,258.233765 
	C148.708954,251.774307 148.400589,245.425949 148.092224,239.077576 
	C148.501343,234.524902 148.910446,229.972244 149.696808,225.327789 
z"/>
<path fill="#6B719F" opacity="1.000000" stroke="none" 
	d="
M294.883301,272.898224 
	C291.758453,272.898224 288.633606,272.898224 285.855469,272.898224 
	C285.855469,261.058960 285.855469,249.245193 285.966614,238.233353 
	C286.077728,249.912231 286.077728,260.789185 286.077728,271.975098 
	C289.177734,271.975098 291.494171,271.975098 294.024475,272.085693 
	C294.501556,272.385986 294.716553,272.619934 294.883301,272.898224 
z"/>
<path fill="#060E49" opacity="1.000000" stroke="none" 
	d="
M293.810608,271.975098 
	C291.494171,271.975098 289.177734,271.975098 286.077728,271.975098 
	C286.077728,260.789185 286.077728,249.912231 286.149689,238.589890 
	C286.221649,238.144501 286.665161,238.214279 286.879211,238.284729 
	C287.068481,246.793884 287.347931,255.248611 286.905243,263.665344 
	C286.638214,268.742432 288.362244,271.055206 293.669678,271.243988 
	C293.969910,271.508026 293.810608,271.975098 293.810608,271.975098 
z"/>
<path fill="#B3BAD8" opacity="1.000000" stroke="none" 
	d="
M415.033356,239.178436 
	C415.401581,241.391815 415.907562,243.938370 415.942810,246.491425 
	C416.059937,254.973129 416.007782,263.457184 416.035095,272.394653 
	C415.700439,272.431488 415.055542,272.021088 415.045380,271.595459 
	C414.810150,261.760193 414.630646,251.923492 414.488190,242.086349 
	C414.475800,241.231522 414.791962,240.371948 415.033356,239.178436 
z"/>
<path fill="#B3BAD8" opacity="1.000000" stroke="none" 
	d="
M294.024475,272.085693 
	C293.810608,271.975098 293.969910,271.508026 294.027771,271.268188 
	C294.389832,269.275665 294.693970,267.522949 294.999847,264.907715 
	C294.950592,255.080978 294.899597,246.116806 294.848633,237.152618 
	C295.235992,237.708969 295.961365,238.265640 295.960846,238.821625 
	C295.950012,250.127045 295.856110,261.432404 295.331055,272.817993 
	C294.716553,272.619934 294.501556,272.385986 294.024475,272.085693 
z"/>
<path fill="#060E49" opacity="1.000000" stroke="none" 
	d="
M187.945984,241.041550 
	C188.308777,242.675125 188.918091,244.297485 188.993134,245.944168 
	C189.388763,254.626724 189.649643,263.315430 190.007126,272.403534 
	C189.634735,272.829010 189.212509,272.852966 188.453156,272.403503 
	C188.059341,261.633911 188.002670,251.337723 187.945984,241.041550 
z"/>
<path fill="#B3BAD8" opacity="1.000000" stroke="none" 
	d="
M187.658386,241.064377 
	C188.002670,251.337723 188.059341,261.633911 188.136597,272.380310 
	C187.748230,271.487488 187.009247,270.150574 186.984161,268.800385 
	C186.826660,260.330261 186.828217,251.857162 186.407562,243.151443 
	C186.482254,242.307632 186.926529,241.697418 187.658386,241.064377 
z"/>
<path fill="#6B719F" opacity="1.000000" stroke="none" 
	d="
M158.074142,272.240662 
	C157.872635,262.278229 157.925583,252.585754 157.941360,242.420380 
	C157.904175,241.947495 158.006821,241.903915 158.360611,241.999268 
	C159.222000,243.302643 159.729599,244.510635 160.237198,245.718643 
	C159.825531,246.969528 159.106323,248.207382 159.052612,249.473450 
	C158.726959,257.148926 158.553146,264.830841 158.074142,272.240662 
z"/>
<path fill="#060E49" opacity="1.000000" stroke="none" 
	d="
M166.041962,256.372742 
	C166.881699,256.536835 168.205338,256.899078 168.422379,257.602692 
	C169.655441,261.599976 172.564362,262.365112 176.592346,262.104248 
	C174.783920,265.420898 171.097183,265.581512 168.967300,262.356842 
	C167.805603,260.597992 166.987747,258.612030 166.041962,256.372742 
z"/>
<path fill="#081358" opacity="1.000000" stroke="none" 
	d="
M148.052246,239.537476 
	C148.400589,245.425949 148.708954,251.774307 149.026154,258.599792 
	C149.038132,259.500916 149.041260,259.924896 149.058899,260.667053 
	C148.889206,263.051575 148.705032,265.117920 148.348877,267.508057 
	C148.122009,258.553680 148.067139,249.275528 148.052246,239.537476 
z"/>
<path fill="#060E49" opacity="1.000000" stroke="none" 
	d="
M294.630737,237.110718 
	C294.899597,246.116806 294.950592,255.080978 294.928162,264.506256 
	C294.567871,257.791412 294.267883,250.615952 294.003387,243.439178 
	C293.936920,241.635666 293.984528,239.827957 293.975037,237.562408 
	C293.970337,237.102661 294.412842,237.068802 294.630737,237.110718 
z"/>
<path fill="#B3BAD8" opacity="1.000000" stroke="none" 
	d="
M90.209427,282.789276 
	C89.807137,274.052582 89.868042,265.355377 89.926613,256.159668 
	C90.303238,256.321045 91.014877,256.983063 91.010727,257.640533 
	C90.957710,266.036957 90.802147,274.432770 90.209427,282.789276 
z"/>
<path fill="#B3BAD8" opacity="1.000000" stroke="none" 
	d="
M448.011993,270.933868 
	C448.011993,270.933868 448.013916,270.465302 448.003510,269.775818 
	C447.943298,261.724274 447.893494,254.362198 447.843689,247.000122 
	C447.892914,246.822235 447.942108,246.644363 447.983368,246.189819 
	C448.317352,248.558624 448.882416,251.198074 448.954681,253.850922 
	C449.103394,259.312164 448.988800,264.780579 448.702301,270.706970 
	C448.422028,271.167908 448.011993,270.933868 448.011993,270.933868 
z"/>
<path fill="#060E49" opacity="1.000000" stroke="none" 
	d="
M340.816925,255.286896 
	C341.671448,258.099823 342.288025,261.178284 342.874634,264.676147 
	C342.089447,261.914520 341.334229,258.733459 340.816925,255.286896 
z"/>
<path fill="#060E49" opacity="1.000000" stroke="none" 
	d="
M160.363190,245.896317 
	C159.729599,244.510635 159.222000,243.302643 158.335770,241.949356 
	C160.700424,240.781509 160.700424,240.781509 161.982712,246.614532 
	C161.502792,246.679947 160.995987,246.376968 160.363190,245.896317 
z"/>
<path fill="#060E49" opacity="1.000000" stroke="none" 
	d="
M346.255005,269.224182 
	C347.740295,269.763702 349.444550,270.545471 351.080841,271.608978 
	C349.499908,271.082642 347.986969,270.274536 346.255005,269.224182 
z"/>
<path fill="#060E49" opacity="1.000000" stroke="none" 
	d="
M177.529678,261.962433 
	C177.582642,260.782837 177.980606,259.559082 178.697266,258.220886 
	C178.635544,259.377075 178.255112,260.647675 177.529678,261.962433 
z"/>
<path fill="#060E49" opacity="1.000000" stroke="none" 
	d="
M160.774017,225.776855 
	C160.074326,225.835159 159.289658,225.622253 158.259796,225.223480 
	C158.906067,225.193619 159.797546,225.349640 160.774017,225.776855 
z"/>
<path fill="#060E49" opacity="1.000000" stroke="none" 
	d="
M164.259094,252.263245 
	C164.839340,252.724701 165.413818,253.495697 166.024124,254.571869 
	C165.457733,254.108963 164.855530,253.340866 164.259094,252.263245 
z"/>
<path fill="#060E49" opacity="1.000000" stroke="none" 
	d="
M162.046265,248.331894 
	C162.701019,248.787430 163.325638,249.565277 163.977783,250.666382 
	C163.342270,250.211151 162.679199,249.432663 162.046265,248.331894 
z"/>
<path fill="#060E49" opacity="1.000000" stroke="none" 
	d="
M341.761841,248.115875 
	C341.801270,248.428360 341.652893,248.950165 341.360413,249.699554 
	C341.335541,249.393173 341.454773,248.859177 341.761841,248.115875 
z"/>
<path fill="#060E49" opacity="1.000000" stroke="none" 
	d="
M447.985748,271.244507 
	C448.011993,270.933868 448.422028,271.167908 448.656494,271.186646 
	C448.675751,271.622009 448.460510,272.038666 448.072418,272.315521 
	C447.919556,271.968872 447.939514,271.762024 447.985748,271.244507 
z"/>
<path fill="#060E49" opacity="1.000000" stroke="none" 
	d="
M179.329742,257.920105 
	C179.283173,257.763458 179.471619,257.555298 179.835815,257.224854 
	C179.976730,257.419373 179.827789,257.674713 179.329742,257.920105 
z"/>
<path fill="#060E49" opacity="1.000000" stroke="none" 
	d="
M180.149887,256.876221 
	C180.062637,256.975464 179.976898,256.588226 179.945312,256.393921 
	C180.222382,256.290833 180.330185,256.483246 180.149887,256.876221 
z"/>
<path fill="#060E49" opacity="1.000000" stroke="none" 
	d="
M340.871704,253.107544 
	C341.001740,253.176407 340.999420,253.346207 340.991730,253.770767 
	C340.640167,253.810425 340.557861,253.538055 340.871704,253.107544 
z"/>
<path fill="#060E49" opacity="1.000000" stroke="none" 
	d="
M341.186279,252.299530 
	C341.378052,252.329330 341.361389,252.578659 341.106140,252.908539 
	C341.008118,253.001236 341.118469,252.531219 341.186279,252.299530 
z"/>
<path fill="#060E49" opacity="1.000000" stroke="none" 
	d="
M344.291870,267.238159 
	C344.417236,267.222565 344.603363,267.416412 344.888794,267.792511 
	C344.744751,267.841309 344.532928,267.665619 344.291870,267.238159 
z"/>
<path fill="#000000" opacity="1.000000" stroke="none" 
	d="
M266.811859,247.177277 
	C269.813507,249.683685 271.843170,256.977448 269.439514,259.367859 
	C266.839783,261.953278 262.930267,264.317993 259.415466,264.603302 
	C255.230728,264.942963 253.096344,261.128296 252.636932,256.865784 
	C252.218155,252.980438 252.231781,249.374268 255.823349,246.688400 
	C259.528320,243.917709 262.981781,245.257401 266.811859,247.177277 
z"/>
<path fill="#000000" opacity="1.000000" stroke="none" 
	d="
M386.397858,263.546509 
	C385.799194,261.087341 385.021912,258.618164 388.251617,258.182434 
	C391.231171,257.780457 394.281769,257.904694 397.301056,257.797150 
	C397.176605,259.646240 397.730621,262.557526 396.803375,263.149780 
	C393.738159,265.107666 390.191986,267.292480 386.397858,263.546509 
z"/>
<path fill="#000000" opacity="1.000000" stroke="none" 
	d="
M228.211746,248.746323 
	C227.806229,249.713760 227.285126,250.854111 226.718918,250.876953 
	C222.803909,251.035004 218.879501,250.960220 214.963593,250.960220 
	C213.791534,245.617157 217.678146,244.572174 220.708878,243.519974 
	C224.835556,242.087326 226.410278,245.548737 228.211746,248.746323 
z"/>
<path fill="#060E49" opacity="1.000000" stroke="none" 
	d="
M447.660828,247.369247 
	C447.893494,254.362198 447.943298,261.724274 447.927673,269.554138 
	C447.734161,262.594055 447.606049,255.166214 447.660828,247.369247 
z"/>
</svg>